<?xml version="1.0" standalone="no"?>
<!DOCTYPE svg PUBLIC "-//W3C//DTD SVG 20010904//EN"
 "http://www.w3.org/TR/2001/REC-SVG-20010904/DTD/svg10.dtd">
<svg version="1.0" xmlns="http://www.w3.org/2000/svg"
 width="724.000000pt" height="724.000000pt" viewBox="0 0 724.000000 724.000000"
 preserveAspectRatio="xMidYMid meet">
<metadata>
Created by potrace 1.11, written by Peter Selinger 2001-2013
</metadata>
<g transform="translate(0.000000,724.000000) scale(0.100000,-0.100000)"
fill="#000000" stroke="none">
<path d="M111 7200 c-4 -8 -7 -179 -6 -379 l1 -364 189 1 c105 0 195 1 200 1
6 1 12 25 13 54 2 28 5 68 6 87 15 178 19 217 21 230 2 13 53 15 378 18 208 1
378 -1 378 -5 6 -35 2 -2676 -3 -2679 -9 -6 -37 -12 -83 -19 -16 -2 -39 -6
-50 -9 -11 -2 -40 -7 -65 -10 -25 -4 -74 -12 -110 -19 l-65 -12 0 -145 0 -145
40 -2 c22 -1 54 -2 70 -2 17 0 41 -1 55 -1 14 -1 32 -1 40 0 8 0 29 0 45 -1
17 -1 37 -1 45 0 8 1 24 1 35 1 11 -1 27 -1 35 0 8 0 29 0 45 -1 17 -1 37 -1
45 0 8 1 24 1 35 1 11 -1 27 -1 35 0 8 0 29 0 45 -1 17 -1 36 -1 43 0 20 2 31
2 157 1 66 0 141 1 167 1 26 0 52 -2 58 -6 5 -3 10 -1 10 5 0 6 5 8 11 4 6 -4
43 -6 83 -5 39 1 83 2 97 2 l26 -1 2 144 c1 80 -2 147 -7 150 -5 3 -37 10 -73
16 -35 5 -77 12 -94 15 -26 5 -51 9 -167 29 -15 3 -31 7 -35 9 -6 4 -10 2604
-4 2675 1 10 80 12 378 10 336 -3 376 -5 378 -19 2 -9 6 -49 9 -90 6 -79 15
-170 21 -233 2 -21 7 -41 9 -44 5 -4 243 -6 361 -3 l30 1 0 375 0 375 -25 1
c-14 0 -650 1 -1413 2 -1226 2 -1390 0 -1396 -13z"/>
<path d="M3887 7208 c-9 -4 -12 -47 -11 -145 1 -76 2 -141 3 -144 1 -6 79 -23
94 -20 4 0 26 -3 50 -8 23 -5 60 -12 82 -15 22 -4 65 -11 96 -17 l56 -11 -2
-1117 c-1 -614 -4 -1125 -7 -1136 -3 -11 -11 -40 -18 -64 -49 -184 -182 -330
-350 -386 -75 -25 -105 -29 -210 -29 -129 0 -238 21 -297 56 -18 11 -33 17
-33 13 0 -7 -56 30 -78 52 -7 7 -17 13 -20 13 -11 0 -87 101 -110 145 -19 38
-41 107 -48 150 -2 11 -5 30 -8 43 -3 12 -6 52 -8 87 l-3 65 -222 0 c-205 0
-223 -1 -224 -17 -3 -45 -1 -113 5 -168 7 -64 8 -67 21 -130 5 -22 9 -42 10
-45 0 -3 13 -37 29 -77 89 -231 296 -411 566 -492 145 -44 229 -55 420 -55
166 -1 229 6 330 35 25 7 53 14 64 16 32 6 210 89 229 107 7 6 30 23 52 37 40
26 129 110 174 164 42 50 108 170 136 246 27 74 29 83 41 149 4 19 9 44 11 55
4 18 12 245 13 355 0 25 0 92 1 150 0 58 0 111 0 118 0 6 0 95 0 197 0 102 0
193 0 203 -1 9 -1 64 0 122 0 58 0 111 0 118 0 6 0 95 0 197 0 102 0 193 0
203 -1 9 -1 64 0 122 0 131 0 95 -1 308 -1 101 0 185 2 187 2 2 17 6 33 9 17
3 40 8 51 10 12 2 38 7 58 10 76 12 112 18 126 21 8 2 36 7 63 11 l48 7 -3
150 -3 150 -598 1 c-329 0 -604 -2 -610 -6z"/>
<path d="M191 3410 c-5 -4 -7 -263 -2 -291 1 -6 45 -14 131 -25 19 -3 51 -9
70 -14 19 -4 60 -12 90 -16 30 -4 58 -9 63 -10 4 -1 11 -2 16 -3 14 -2 13
-2679 -1 -2687 -9 -6 -133 -29 -257 -49 -34 -5 -73 -13 -101 -21 -12 -3 -15
-28 -15 -149 l0 -145 615 0 615 0 -2 123 c-1 67 -2 134 -2 148 -1 24 -6 27
-48 33 -27 4 -55 9 -63 11 -19 4 -89 16 -115 19 -11 2 -36 6 -55 10 -19 3 -48
8 -64 11 -16 2 -30 5 -31 7 -2 2 -5 309 -9 683 -3 374 -8 725 -10 780 -7 151
-16 391 -22 575 -2 91 -6 202 -8 248 -2 45 0 82 4 82 4 0 15 -21 25 -47 10
-27 26 -66 35 -88 10 -22 25 -60 35 -85 9 -25 23 -58 30 -75 7 -16 27 -66 44
-110 18 -44 36 -89 41 -100 5 -11 66 -162 136 -335 69 -173 131 -323 136 -333
5 -10 11 -26 13 -35 2 -9 29 -78 60 -152 31 -74 58 -139 59 -145 1 -5 12 -32
25 -60 13 -27 24 -54 25 -60 1 -9 40 -105 71 -180 7 -16 77 -190 155 -385 79
-195 152 -375 163 -400 11 -25 20 -51 20 -57 0 -7 5 -13 10 -13 6 0 8 -3 4 -6
-3 -4 0 -19 9 -35 l15 -29 153 0 153 0 38 98 c21 53 45 113 54 132 8 19 15 37
16 40 1 3 7 19 14 35 7 17 39 97 73 179 33 82 65 161 71 175 5 14 11 28 12 31
1 3 7 18 13 33 7 16 12 30 12 33 0 2 9 23 19 47 11 23 41 96 67 162 25 66 49
125 52 130 4 6 7 15 8 20 1 6 10 28 20 50 10 22 19 45 20 50 1 6 15 42 32 80
29 70 44 105 47 115 1 3 6 16 12 30 13 31 161 398 203 505 18 44 42 103 54
130 13 28 29 68 36 90 7 22 16 45 20 50 4 6 20 44 35 85 15 41 36 93 45 115
10 22 30 72 45 110 16 39 36 88 46 110 26 61 32 79 31 88 -1 4 3 7 8 7 9 0 15
-22 11 -44 -1 -5 -4 -74 -6 -155 -3 -80 -7 -218 -10 -306 -3 -88 -7 -232 -10
-320 -3 -88 -8 -232 -11 -320 -3 -88 -6 -397 -7 -687 -1 -289 -5 -530 -9 -534
-5 -4 -20 -9 -35 -11 -16 -2 -98 -16 -183 -31 l-155 -27 0 -148 0 -147 615 0
615 0 -2 136 c-1 75 -4 142 -7 149 -2 7 -25 16 -51 19 -26 4 -57 10 -68 12
-32 7 -54 11 -134 24 -39 6 -80 13 -90 15 -10 2 -22 4 -28 4 -10 1 -12 2678
-2 2687 5 5 31 11 87 19 20 3 45 7 55 9 11 2 40 7 65 11 25 4 54 9 65 12 11 2
38 6 60 9 22 3 42 7 44 10 6 6 3 285 -3 291 -3 4 -794 7 -941 4 -26 -1 -33 -7
-50 -49 -10 -26 -20 -51 -21 -57 -2 -10 -115 -298 -134 -340 -4 -11 -43 -110
-85 -220 -42 -110 -84 -215 -91 -232 -8 -18 -26 -63 -40 -100 -22 -59 -96
-247 -179 -458 -13 -33 -44 -114 -70 -180 -25 -66 -50 -129 -55 -140 -9 -20
-34 -85 -136 -350 -30 -77 -58 -149 -63 -160 -11 -23 -75 -188 -77 -195 0 -3
-5 -16 -11 -30 -20 -46 -81 -205 -87 -227 -11 -36 -32 -34 -46 5 -13 37 -173
449 -189 487 -8 17 -67 169 -118 300 -8 22 -19 49 -24 60 -4 11 -24 63 -44
115 -20 52 -42 109 -49 125 -8 17 -46 113 -86 215 -39 102 -75 194 -80 205 -4
11 -40 103 -80 205 -39 102 -75 194 -80 205 -5 11 -29 72 -54 135 -24 63 -70
180 -101 260 -31 80 -68 174 -81 210 -14 36 -31 79 -38 95 -8 17 -20 46 -27
65 -7 19 -16 39 -20 43 -7 9 -956 16 -968 7z"/>
<path d="M4668 3412 c-13 -2 -15 -24 -13 -145 1 -78 3 -145 3 -148 1 -3 37
-12 80 -19 42 -7 88 -15 102 -17 14 -3 32 -7 40 -8 8 -1 35 -5 60 -9 25 -4 53
-8 62 -10 10 -1 21 -6 25 -10 4 -4 8 -609 8 -1343 0 -1329 0 -1336 -20 -1343
-11 -5 -54 -13 -95 -20 -41 -6 -86 -14 -100 -16 -14 -2 -41 -7 -60 -10 -19 -3
-51 -9 -70 -13 l-35 -7 -1 -147 -1 -147 1229 0 1228 0 1 43 c3 292 -2 701 -9
706 -13 8 -371 5 -379 -3 -4 -4 -8 -21 -9 -39 -5 -63 -14 -163 -21 -232 -3
-38 -7 -80 -7 -92 0 -20 -5 -21 -63 -20 -35 1 -63 -1 -63 -5 0 -4 -7 -5 -17
-1 -24 9 -185 10 -205 0 -10 -4 -18 -4 -18 1 0 8 -58 8 -66 -1 -3 -3 -20 -1
-38 3 -19 4 -40 4 -47 -1 -7 -4 -17 -5 -23 -2 -14 9 -106 9 -106 1 0 -4 -7 -5
-16 -1 -25 9 -147 10 -166 0 -10 -4 -18 -4 -18 1 0 9 -53 8 -69 -3 -6 -3 -11
-2 -11 2 0 10 -53 9 -69 -2 -6 -3 -11 -2 -11 2 0 5 -15 8 -32 6 -37 -4 -40 -4
-103 -3 -43 2 -45 3 -46 33 -3 146 -1 2648 3 2652 4 4 41 12 138 29 14 2 41 7
60 10 60 10 94 16 130 22 49 8 50 9 49 63 -1 27 2 54 5 60 4 6 3 11 -1 11 -5
0 -6 27 -3 61 3 33 3 62 -1 65 -4 2 -5 13 -2 24 5 18 0 20 -48 21 -272 2
-1149 3 -1161 1z"/>
</g>
</svg>
