<svg width="681" height="583" viewBox="0 0 681 583" fill="none" xmlns="http://www.w3.org/2000/svg">
<g clip-path="url(#clip0)">
<rect width="681" height="583" fill="white"/>
<circle cx="91" cy="100" r="25" fill="#4285F4"/>
<circle cx="25" cy="185" r="25" fill="#4285F4"/>
<circle cx="66" cy="321" r="25" fill="#4285F4"/>
<circle cx="423" cy="464" r="25" fill="#4285F4"/>
<circle cx="220" cy="429" r="25" fill="#4285F4"/>
<circle cx="296" cy="159" r="25" fill="#4285F4"/>
<circle cx="402" cy="308" r="25" fill="#4285F4"/>
<circle cx="164" cy="339" r="25" fill="#4285F4"/>
<circle cx="276" cy="25" r="25" fill="#4285F4"/>
<circle cx="550" cy="100" r="25" fill="#4285F4"/>
<circle cx="550" cy="100" r="25" fill="#4285F4"/>
<circle cx="656" cy="231" r="25" fill="#4285F4"/>
<circle cx="584" cy="422" r="25" fill="#4285F4"/>
<line x1="100.095" y1="110.716" x2="588.095" y2="428.716" stroke="#4285F4" stroke-width="15"/>
<line x1="554.456" y1="116.188" x2="588.456" y2="428.188" stroke="#4285F4" stroke-width="15"/>
<line x1="84.0924" y1="104.374" x2="28.0924" y2="182.374" stroke="#4285F4" stroke-width="15"/>
<line x1="64.8642" y1="323.309" x2="20.8642" y2="187.309" stroke="#4285F4" stroke-width="15"/>
<line x1="66.9116" y1="325.556" x2="164.912" y2="337.556" stroke="#4285F4" stroke-width="15"/>
<line x1="20.4119" y1="185.808" x2="162.412" y2="333.808" stroke="#4285F4" stroke-width="15"/>
<line x1="678.143" y1="369.252" x2="592.143" y2="426.252" stroke="#4285F4" stroke-width="15"/>
<line x1="672.535" y1="371.728" x2="660.535" y2="248.728" stroke="#4285F4" stroke-width="15"/>
<line x1="278.742" y1="25.9806" x2="110.742" y2="91.9806" stroke="#4285F4" stroke-width="15"/>
<line x1="278.448" y1="24.117" x2="324.448" y2="412.117" stroke="#4285F4" stroke-width="15"/>
<line x1="548.097" y1="104.368" x2="318.097" y2="425.368" stroke="#4285F4" stroke-width="15"/>
<line x1="534.275" y1="88.299" x2="297.275" y2="32.299" stroke="#4285F4" stroke-width="15"/>
<line x1="550.097" y1="86.6329" x2="656.097" y2="234.633" stroke="#4285F4" stroke-width="15"/>
<line x1="410.811" y1="472.585" x2="650.811" y2="242.585" stroke="#4285F4" stroke-width="15"/>
<line x1="295.695" y1="151.694" x2="657.695" y2="235.694" stroke="#4285F4" stroke-width="15"/>
<line x1="300.261" y1="143.13" x2="143.261" y2="381.13" stroke="#4285F4" stroke-width="15"/>
<line x1="215.688" y1="427.136" x2="139.596" y2="373.667" stroke="#4285F4" stroke-width="15"/>
<line x1="218.901" y1="432.581" x2="326.901" y2="416.581" stroke="#4285F4" stroke-width="15"/>
<line x1="420.557" y1="580.838" x2="319.868" y2="411.803" stroke="#4285F4" stroke-width="15"/>
<path d="M416 574.5H449" stroke="#4285F4" stroke-width="15"/>
<line x1="423.237" y1="467.032" x2="454.237" y2="581.032" stroke="#4285F4" stroke-width="15"/>
<line x1="417.418" y1="466.144" x2="487.045" y2="529.451" stroke="#4285F4" stroke-width="15"/>
<line x1="592.718" y1="482.99" x2="480.878" y2="526.484" stroke="#4285F4" stroke-width="15"/>
<line x1="588.5" y1="488" x2="588.5" y2="429" stroke="#4285F4" stroke-width="15"/>
<line x1="412.295" y1="469.521" x2="324.295" y2="419.521" stroke="#4285F4" stroke-width="15"/>
</g>
<defs>
<clipPath id="clip0">
<rect width="681" height="583" fill="white"/>
</clipPath>
</defs>
</svg>
