<svg width="812" height="289" viewBox="0 0 812 289" version="1.1" xmlns="http://www.w3.org/2000/svg" xmlns:xlink="http://www.w3.org/1999/xlink">
<title>neuron</title>
<desc>Created using Figma</desc>
<g id="Canvas" transform="translate(-1836 -622)">
<clipPath id="clip-0" clip-rule="evenodd">
<path d="M 1836 622L 2648 622L 2648 911L 1836 911L 1836 622Z" fill="#FFFFFF"/>
</clipPath>
<g id="neuron" clip-path="url(#clip-0)">
<path d="M 1836 622L 2648 622L 2648 911L 1836 911L 1836 622Z" fill="#FFFFFF"/>
<g id="Ellipse">
<use xlink:href="#path0_fill" transform="translate(2111 724)" fill="#FFFFFF"/>
<mask id="mask0_outline_ins">
<use xlink:href="#path0_fill" fill="white" transform="translate(2111 724)"/>
</mask>
<g mask="url(#mask0_outline_ins)">
<use xlink:href="#path1_stroke_2x" transform="translate(2111 724)"/>
</g>
</g>
<g id="Ellipse">
<use xlink:href="#path0_fill" transform="translate(2311 724)" fill="#FFFFFF"/>
<mask id="mask1_outline_ins">
<use xlink:href="#path0_fill" fill="white" transform="translate(2311 724)"/>
</mask>
<g mask="url(#mask1_outline_ins)">
<use xlink:href="#path1_stroke_2x" transform="translate(2311 724)"/>
</g>
</g>
<g id="wn">
<use xlink:href="#path2_fill" transform="translate(2043 807)"/>
</g>
<g id="w2">
<use xlink:href="#path3_fill" transform="translate(2020 731)"/>
</g>
<g id="w1">
<use xlink:href="#path4_fill" transform="translate(2037 652)"/>
</g>
<g id="&#206;&#163;">
<use xlink:href="#path5_fill" transform="translate(2127 735)"/>
</g>
<g id="&#207;&#131;">
<use xlink:href="#path6_fill" transform="translate(2327 731)"/>
</g>
<g id="Line 14">
<use xlink:href="#path7_stroke" transform="matrix(0.768221 0.640184 -0.640184 0.768221 1991 664)"/>
</g>
<g id="Line 17">
<use xlink:href="#path8_stroke" transform="matrix(0.774532 -0.632535 0.632535 0.774532 1991 864)"/>
</g>
<g id="Line 19">
<use xlink:href="#path9_stroke" transform="matrix(1 -1.14032e-09 1.14032e-09 1 2191 764)"/>
</g>
<g id="output">
<use xlink:href="#path10_fill" transform="translate(2506 728)"/>
</g>
<g id="input n">
<use xlink:href="#path11_fill" transform="translate(1847 839)"/>
</g>
<g id="input 2">
<use xlink:href="#path12_fill" transform="translate(1847 739)"/>
</g>
<g id="input 1">
<use xlink:href="#path13_fill" transform="translate(1847 627)"/>
</g>
<g id="Arrow 3">
<use xlink:href="#path14_stroke" transform="translate(2391 764)"/>
</g>
<g id="Line 22">
<use xlink:href="#path15_stroke" transform="matrix(-1 1.22465e-16 -1.22465e-16 -1 2015 764)"/>
</g>
<g id="Line 23">
<use xlink:href="#path16_stroke" transform="matrix(1 -2.44929e-16 2.44929e-16 1 2068 764)"/>
</g>
</g>
</g>
<defs>
<path id="path0_fill" d="M 80 40C 80 62.0914 62.0914 80 40 80C 17.9086 80 0 62.0914 0 40C 0 17.9086 17.9086 0 40 0C 62.0914 0 80 17.9086 80 40Z"/>
<path id="path1_stroke_2x" d="M 78 40C 78 60.9868 60.9868 78 40 78L 40 82C 63.196 82 82 63.196 82 40L 78 40ZM 40 78C 19.0132 78 2 60.9868 2 40L -2 40C -2 63.196 16.804 82 40 82L 40 78ZM 2 40C 2 19.0132 19.0132 2 40 2L 40 -2C 16.804 -2 -2 16.804 -2 40L 2 40ZM 40 2C 60.9868 2 78 19.0132 78 40L 82 40C 82 16.804 63.196 -2 40 -2L 40 2Z"/>
<path id="path2_fill" d="M 32.84 25.44L 24.88 25.44L 24.88 26.84L 28.36 27.36L 23.96 41.84L 18.6 27.32L 21.96 26.84L 21.96 25.44L 12.8 25.44L 12.8 26.84L 16.12 27.32L 10.88 41.84L 6 27.28L 9.52 26.84L 9.52 25.44L -0.04 25.44L -0.04 26.84L 2.56 27.24L 9.52 46.28L 10.84 46.28L 16.8 29.92C 17.88 33.32 19.2 37.12 22.64 46.28L 24 46.28L 30.32 27.32L 32.84 26.84L 32.84 25.44ZM 44.0641 45.1C 44.0241 44 44.0041 42.48 44.0041 41.44L 44.0041 39.36C 44.0041 36.54 43.0841 35.44 41.2641 35.44C 39.9241 35.44 38.4241 36.22 37.2641 37.5L 37.1041 35.66L 36.8241 35.46L 33.9441 36.52L 33.9441 37.16L 35.7241 37.3C 35.7641 38.24 35.8041 39.08 35.8041 40.34L 35.8041 41.44C 35.8041 42.46 35.7841 44 35.7441 45.12L 34.0641 45.36L 34.0641 46L 38.9441 46L 38.9441 45.36L 37.3641 45.1C 37.3441 44 37.3241 42.46 37.3241 41.44L 37.3241 38.28C 38.6041 37.1 39.6241 36.68 40.6041 36.68C 41.8841 36.68 42.4841 37.36 42.4841 39.44L 42.4841 41.44C 42.4841 42.48 42.4641 44.02 42.4441 45.12L 40.7441 45.36L 40.7441 46L 45.6441 46L 45.6441 45.36L 44.0641 45.1Z"/>
<path id="path3_fill" d="M 32.84 25.44L 24.88 25.44L 24.88 26.84L 28.36 27.36L 23.96 41.84L 18.6 27.32L 21.96 26.84L 21.96 25.44L 12.8 25.44L 12.8 26.84L 16.12 27.32L 10.88 41.84L 6 27.28L 9.52 26.84L 9.52 25.44L -0.04 25.44L -0.04 26.84L 2.56 27.24L 9.52 46.28L 10.84 46.28L 16.8 29.92C 17.88 33.32 19.2 37.12 22.64 46.28L 24 46.28L 30.32 27.32L 32.84 26.84L 32.84 25.44ZM 35.5241 44.5C 36.6241 43.3 37.6641 42.2 38.2241 41.58C 41.3641 38.18 42.3841 36.78 42.3841 34.94C 42.3841 32.68 41.1241 31.12 38.4241 31.12C 36.3441 31.12 34.4841 32.18 34.1441 34.28C 34.3641 34.66 34.6641 34.9 35.1041 34.9C 35.6241 34.9 35.9241 34.52 36.1641 33.66L 36.6641 32.12C 37.1441 31.98 37.6041 31.94 37.9841 31.94C 39.7041 31.94 40.7441 33.2 40.7441 35.04C 40.7441 36.74 39.8041 38.36 37.6641 40.84C 36.7041 41.96 35.4841 43.4 34.2241 44.8L 34.2241 46L 43.0441 46L 43.0441 44.5L 35.5241 44.5Z"/>
<path id="path4_fill" d="M 32.84 25.44L 24.88 25.44L 24.88 26.84L 28.36 27.36L 23.96 41.84L 18.6 27.32L 21.96 26.84L 21.96 25.44L 12.8 25.44L 12.8 26.84L 16.12 27.32L 10.88 41.84L 6 27.28L 9.52 26.84L 9.52 25.44L -0.04 25.44L -0.04 26.84L 2.56 27.24L 9.52 46.28L 10.84 46.28L 16.8 29.92C 17.88 33.32 19.2 37.12 22.64 46.28L 24 46.28L 30.32 27.32L 32.84 26.84L 32.84 25.44ZM 39.6041 44.98C 39.5841 43.78 39.5641 42.6 39.5641 41.42L 39.5641 34.56L 39.6441 31.44L 39.3441 31.22L 35.0241 32.34L 35.0241 33.06L 38.0241 32.72L 38.0241 41.42C 38.0241 42.6 38.0041 43.78 37.9841 44.98L 34.8241 45.36L 34.8241 46L 42.7241 46L 42.7241 45.36L 39.6041 44.98Z"/>
<path id="path5_fill" d="M 30.4725 37.28L 29.3525 43L 14.4325 43L 24.3525 30.6L 15.7525 18.6L 28.4725 18.6L 29.7125 24.44L 31.8325 24.44L 31.5125 16.84L 11.8325 16.84L 11.8325 18.16L 21.3525 31.48L 11.3125 43.96L 11.3125 46L 32.3125 46L 32.6325 37.28L 30.4725 37.28Z"/>
<path id="path6_fill" d="M 21.7525 44.96C 18.3525 44.96 15.3125 41.52 15.3125 35.6C 15.3125 30.64 17.3525 27.72 21.8725 27.2C 26.0325 28.36 28.0325 32.6 28.0325 36.44C 28.0325 42.12 25.3525 44.96 21.7525 44.96ZM 34.8725 28.28L 34.7925 25.32L 23.1925 25.36C 16.7525 25.36 12.1925 29.2 12.1925 36.32C 12.1925 42.52 15.9525 46.56 21.5125 46.56C 26.7925 46.56 30.9925 42.36 30.9925 36.44C 30.9925 32.76 28.6325 29.08 25.0325 27.44L 34.8725 28.28Z"/>
<path id="path7_stroke" d="M 0 0L 156.205 0L 156.205 -1L 0 -1L 0 0Z"/>
<path id="path8_stroke" d="M 0 0L 154.932 0L 154.932 -1L 0 -1L 0 0Z"/>
<path id="path9_stroke" d="M 0 0L 120 0L 120 -1L 0 -1L 0 0Z"/>
<path id="path10_fill" d="M 11.88 46.56C 16.8 46.56 21.68 43.04 21.68 35.8C 21.68 28.52 16.72 24.88 11.88 24.88C 6.92 24.88 2.04 28.52 2.04 35.8C 2.04 43.04 6.92 46.56 11.88 46.56ZM 11.88 44.96C 7.84 44.96 5.44 41.8 5.44 35.8C 5.44 29.84 7.84 26.48 11.88 26.48C 15.88 26.48 18.32 29.84 18.32 35.8C 18.32 41.8 15.88 44.96 11.88 44.96ZM 44.2766 44.24L 44.2766 31.68L 44.4366 25.6L 43.9966 25.16L 38.0766 25.68L 38.0766 26.96L 41.3566 27.52L 41.2766 40.8C 39.2366 42.92 37.0366 44 34.7566 44C 32.1566 44 30.8766 42.56 30.8766 38.4L 30.8766 31.68L 31.0766 25.6L 30.6766 25.16L 24.6766 25.68L 24.6766 26.96L 27.9966 27.52L 27.8766 38.64C 27.8366 44.52 29.9566 46.56 33.5566 46.56C 36.3566 46.56 39.1166 45.12 41.3566 42.36L 41.6766 46.36L 47.3566 46L 47.3566 44.72L 44.2766 44.24ZM 62.0634 43.56C 60.9434 44.36 60.0634 44.72 59.0234 44.72C 57.3834 44.72 56.4234 43.72 56.4234 41.36L 56.4234 27.28L 62.4634 27.28L 62.4634 25.44L 56.4634 25.44L 56.7034 19.4L 54.5034 19.4L 53.5434 25.32L 49.4634 25.8L 49.4634 27.28L 53.3834 27.28L 53.3834 38.04C 53.3834 39.6 53.3434 40.52 53.3434 41.52C 53.3434 44.92 55.0234 46.56 58.0634 46.56C 60.1034 46.56 61.7434 45.84 62.8634 44.56L 62.0634 43.56ZM 71.5241 29.48C 73.9241 27.32 75.7241 26.88 77.1641 26.88C 80.6441 26.88 83.1241 30 83.1241 35.88C 83.1241 41.96 80.2441 44.52 76.8041 44.52C 75.0041 44.52 73.2841 43.88 71.5241 42.12L 71.5241 29.48ZM 71.0841 25.32L 70.5241 24.92L 64.7241 27.04L 64.7241 28.32L 68.3241 28.6C 68.4441 30.48 68.4841 32.16 68.4841 34.72L 68.4841 47.36C 68.4841 49.72 68.4441 52.28 68.4041 54.68L 64.7641 55.2L 64.7641 56.48L 75.6041 56.48L 75.6041 55.2L 71.4841 54.68C 71.4041 52.24 71.3641 49.6 71.3641 47.28L 71.3641 43.56C 73.3241 45.92 75.4841 46.56 77.4841 46.56C 82.6041 46.56 86.3241 42.32 86.3241 35.56C 86.3241 29 82.7641 24.88 78.0841 24.88C 75.7241 24.88 73.4041 25.88 71.3241 28.2L 71.0841 25.32ZM 108.886 44.24L 108.886 31.68L 109.046 25.6L 108.606 25.16L 102.686 25.68L 102.686 26.96L 105.966 27.52L 105.886 40.8C 103.846 42.92 101.646 44 99.3659 44C 96.7659 44 95.4859 42.56 95.4859 38.4L 95.4859 31.68L 95.6859 25.6L 95.2859 25.16L 89.2859 25.68L 89.2859 26.96L 92.6059 27.52L 92.4859 38.64C 92.4459 44.52 94.5659 46.56 98.1659 46.56C 100.966 46.56 103.726 45.12 105.966 42.36L 106.286 46.36L 111.966 46L 111.966 44.72L 108.886 44.24ZM 126.673 43.56C 125.553 44.36 124.673 44.72 123.633 44.72C 121.993 44.72 121.033 43.72 121.033 41.36L 121.033 27.28L 127.073 27.28L 127.073 25.44L 121.073 25.44L 121.313 19.4L 119.113 19.4L 118.153 25.32L 114.073 25.8L 114.073 27.28L 117.993 27.28L 117.993 38.04C 117.993 39.6 117.953 40.52 117.953 41.52C 117.953 44.92 119.633 46.56 122.673 46.56C 124.713 46.56 126.353 45.84 127.473 44.56L 126.673 43.56Z"/>
<path id="path11_fill" d="M 6.56 19.48C 8 19.48 9.12 18.48 9.12 17.04C 9.12 15.56 8 14.6 6.56 14.6C 5.16 14.6 4.04 15.56 4.04 17.04C 4.04 18.48 5.16 19.48 6.56 19.48ZM 8.24 44.2C 8.2 42 8.16 38.92 8.16 36.88L 8.16 31L 8.28 25.32L 7.68 24.92L 1.4 27L 1.4 28.32L 5.08 28.56C 5.16 30.56 5.16 32.16 5.16 34.64L 5.16 36.88C 5.16 38.92 5.12 42 5.08 44.2L 1.64 44.72L 1.64 46L 11.4 46L 11.4 44.72L 8.24 44.2ZM 34.8078 44.2C 34.7278 42 34.6878 38.96 34.6878 36.88L 34.6878 32.72C 34.6878 27.08 32.8478 24.88 29.2078 24.88C 26.5278 24.88 23.5278 26.44 21.2078 29L 20.8878 25.32L 20.3278 24.92L 14.5678 27.04L 14.5678 28.32L 18.1278 28.6C 18.2078 30.48 18.2878 32.16 18.2878 34.68L 18.2878 36.88C 18.2878 38.92 18.2478 42 18.1678 44.24L 14.8078 44.72L 14.8078 46L 24.5678 46L 24.5678 44.72L 21.4078 44.2C 21.3678 42 21.3278 38.92 21.3278 36.88L 21.3278 30.56C 23.8878 28.2 25.9278 27.36 27.8878 27.36C 30.4478 27.36 31.6478 28.72 31.6478 32.88L 31.6478 36.88C 31.6478 38.96 31.6078 42.04 31.5678 44.24L 28.1678 44.72L 28.1678 46L 37.9678 46L 37.9678 44.72L 34.8078 44.2ZM 47.11 29.48C 49.51 27.32 51.31 26.88 52.75 26.88C 56.23 26.88 58.71 30 58.71 35.88C 58.71 41.96 55.83 44.52 52.39 44.52C 50.59 44.52 48.87 43.88 47.11 42.12L 47.11 29.48ZM 46.67 25.32L 46.11 24.92L 40.31 27.04L 40.31 28.32L 43.91 28.6C 44.03 30.48 44.07 32.16 44.07 34.72L 44.07 47.36C 44.07 49.72 44.03 52.28 43.99 54.68L 40.35 55.2L 40.35 56.48L 51.19 56.48L 51.19 55.2L 47.07 54.68C 46.99 52.24 46.95 49.6 46.95 47.28L 46.95 43.56C 48.91 45.92 51.07 46.56 53.07 46.56C 58.19 46.56 61.91 42.32 61.91 35.56C 61.91 29 58.35 24.88 53.67 24.88C 51.31 24.88 48.99 25.88 46.91 28.2L 46.67 25.32ZM 84.4719 44.24L 84.4719 31.68L 84.6319 25.6L 84.1919 25.16L 78.2719 25.68L 78.2719 26.96L 81.5519 27.52L 81.4719 40.8C 79.4319 42.92 77.2319 44 74.9519 44C 72.3519 44 71.0719 42.56 71.0719 38.4L 71.0719 31.68L 71.2719 25.6L 70.8719 25.16L 64.8719 25.68L 64.8719 26.96L 68.1919 27.52L 68.0719 38.64C 68.0319 44.52 70.1519 46.56 73.7519 46.56C 76.5519 46.56 79.3119 45.12 81.5519 42.36L 81.8719 46.36L 87.5519 46L 87.5519 44.72L 84.4719 44.24ZM 102.259 43.56C 101.139 44.36 100.259 44.72 99.2188 44.72C 97.5788 44.72 96.6188 43.72 96.6188 41.36L 96.6188 27.28L 102.659 27.28L 102.659 25.44L 96.6588 25.44L 96.8988 19.4L 94.6987 19.4L 93.7387 25.32L 89.6587 25.8L 89.6587 27.28L 93.5787 27.28L 93.5787 38.04C 93.5787 39.6 93.5388 40.52 93.5388 41.52C 93.5388 44.92 95.2188 46.56 98.2587 46.56C 100.299 46.56 101.939 45.84 103.059 44.56L 102.259 43.56ZM 135.472 44.2C 135.392 42 135.352 38.96 135.352 36.88L 135.352 32.72C 135.352 27.08 133.512 24.88 129.872 24.88C 127.192 24.88 124.192 26.44 121.872 29L 121.552 25.32L 120.992 24.92L 115.232 27.04L 115.232 28.32L 118.792 28.6C 118.872 30.48 118.952 32.16 118.952 34.68L 118.952 36.88C 118.952 38.92 118.912 42 118.832 44.24L 115.472 44.72L 115.472 46L 125.232 46L 125.232 44.72L 122.072 44.2C 122.032 42 121.992 38.92 121.992 36.88L 121.992 30.56C 124.552 28.2 126.592 27.36 128.552 27.36C 131.112 27.36 132.312 28.72 132.312 32.88L 132.312 36.88C 132.312 38.96 132.272 42.04 132.232 44.24L 128.832 44.72L 128.832 46L 138.632 46L 138.632 44.72L 135.472 44.2Z"/>
<path id="path12_fill" d="M 6.56 19.48C 8 19.48 9.12 18.48 9.12 17.04C 9.12 15.56 8 14.6 6.56 14.6C 5.16 14.6 4.04 15.56 4.04 17.04C 4.04 18.48 5.16 19.48 6.56 19.48ZM 8.24 44.2C 8.2 42 8.16 38.92 8.16 36.88L 8.16 31L 8.28 25.32L 7.68 24.92L 1.4 27L 1.4 28.32L 5.08 28.56C 5.16 30.56 5.16 32.16 5.16 34.64L 5.16 36.88C 5.16 38.92 5.12 42 5.08 44.2L 1.64 44.72L 1.64 46L 11.4 46L 11.4 44.72L 8.24 44.2ZM 34.8078 44.2C 34.7278 42 34.6878 38.96 34.6878 36.88L 34.6878 32.72C 34.6878 27.08 32.8478 24.88 29.2078 24.88C 26.5278 24.88 23.5278 26.44 21.2078 29L 20.8878 25.32L 20.3278 24.92L 14.5678 27.04L 14.5678 28.32L 18.1278 28.6C 18.2078 30.48 18.2878 32.16 18.2878 34.68L 18.2878 36.88C 18.2878 38.92 18.2478 42 18.1678 44.24L 14.8078 44.72L 14.8078 46L 24.5678 46L 24.5678 44.72L 21.4078 44.2C 21.3678 42 21.3278 38.92 21.3278 36.88L 21.3278 30.56C 23.8878 28.2 25.9278 27.36 27.8878 27.36C 30.4478 27.36 31.6478 28.72 31.6478 32.88L 31.6478 36.88C 31.6478 38.96 31.6078 42.04 31.5678 44.24L 28.1678 44.72L 28.1678 46L 37.9678 46L 37.9678 44.72L 34.8078 44.2ZM 47.11 29.48C 49.51 27.32 51.31 26.88 52.75 26.88C 56.23 26.88 58.71 30 58.71 35.88C 58.71 41.96 55.83 44.52 52.39 44.52C 50.59 44.52 48.87 43.88 47.11 42.12L 47.11 29.48ZM 46.67 25.32L 46.11 24.92L 40.31 27.04L 40.31 28.32L 43.91 28.6C 44.03 30.48 44.07 32.16 44.07 34.72L 44.07 47.36C 44.07 49.72 44.03 52.28 43.99 54.68L 40.35 55.2L 40.35 56.48L 51.19 56.48L 51.19 55.2L 47.07 54.68C 46.99 52.24 46.95 49.6 46.95 47.28L 46.95 43.56C 48.91 45.92 51.07 46.56 53.07 46.56C 58.19 46.56 61.91 42.32 61.91 35.56C 61.91 29 58.35 24.88 53.67 24.88C 51.31 24.88 48.99 25.88 46.91 28.2L 46.67 25.32ZM 84.4719 44.24L 84.4719 31.68L 84.6319 25.6L 84.1919 25.16L 78.2719 25.68L 78.2719 26.96L 81.5519 27.52L 81.4719 40.8C 79.4319 42.92 77.2319 44 74.9519 44C 72.3519 44 71.0719 42.56 71.0719 38.4L 71.0719 31.68L 71.2719 25.6L 70.8719 25.16L 64.8719 25.68L 64.8719 26.96L 68.1919 27.52L 68.0719 38.64C 68.0319 44.52 70.1519 46.56 73.7519 46.56C 76.5519 46.56 79.3119 45.12 81.5519 42.36L 81.8719 46.36L 87.5519 46L 87.5519 44.72L 84.4719 44.24ZM 102.259 43.56C 101.139 44.36 100.259 44.72 99.2188 44.72C 97.5788 44.72 96.6188 43.72 96.6188 41.36L 96.6188 27.28L 102.659 27.28L 102.659 25.44L 96.6588 25.44L 96.8988 19.4L 94.6987 19.4L 93.7387 25.32L 89.6587 25.8L 89.6587 27.28L 93.5787 27.28L 93.5787 38.04C 93.5787 39.6 93.5388 40.52 93.5388 41.52C 93.5388 44.92 95.2188 46.56 98.2587 46.56C 100.299 46.56 101.939 45.84 103.059 44.56L 102.259 43.56ZM 118.432 43C 120.632 40.84 122.672 38.8 123.792 37.6C 130.192 31.2 132.112 28.32 132.112 24.64C 132.112 20.24 129.592 17.24 124.192 17.24C 120.032 17.24 116.312 19.36 115.632 23.56C 116.072 24.32 116.672 24.8 117.552 24.8C 118.592 24.8 119.192 24.04 119.672 22.32L 120.672 19.24C 121.632 18.96 122.552 18.88 123.312 18.88C 126.752 18.88 128.832 21.32 128.832 24.92C 128.832 28.28 127.072 31.56 122.672 36.32C 120.752 38.36 118.272 41.04 115.792 43.6L 115.792 46L 133.432 46L 133.432 43L 118.432 43Z"/>
<path id="path13_fill" d="M 6.56 19.48C 8 19.48 9.12 18.48 9.12 17.04C 9.12 15.56 8 14.6 6.56 14.6C 5.16 14.6 4.04 15.56 4.04 17.04C 4.04 18.48 5.16 19.48 6.56 19.48ZM 8.24 44.2C 8.2 42 8.16 38.92 8.16 36.88L 8.16 31L 8.28 25.32L 7.68 24.92L 1.4 27L 1.4 28.32L 5.08 28.56C 5.16 30.56 5.16 32.16 5.16 34.64L 5.16 36.88C 5.16 38.92 5.12 42 5.08 44.2L 1.64 44.72L 1.64 46L 11.4 46L 11.4 44.72L 8.24 44.2ZM 34.8078 44.2C 34.7278 42 34.6878 38.96 34.6878 36.88L 34.6878 32.72C 34.6878 27.08 32.8478 24.88 29.2078 24.88C 26.5278 24.88 23.5278 26.44 21.2078 29L 20.8878 25.32L 20.3278 24.92L 14.5678 27.04L 14.5678 28.32L 18.1278 28.6C 18.2078 30.48 18.2878 32.16 18.2878 34.68L 18.2878 36.88C 18.2878 38.92 18.2478 42 18.1678 44.24L 14.8078 44.72L 14.8078 46L 24.5678 46L 24.5678 44.72L 21.4078 44.2C 21.3678 42 21.3278 38.92 21.3278 36.88L 21.3278 30.56C 23.8878 28.2 25.9278 27.36 27.8878 27.36C 30.4478 27.36 31.6478 28.72 31.6478 32.88L 31.6478 36.88C 31.6478 38.96 31.6078 42.04 31.5678 44.24L 28.1678 44.72L 28.1678 46L 37.9678 46L 37.9678 44.72L 34.8078 44.2ZM 47.11 29.48C 49.51 27.32 51.31 26.88 52.75 26.88C 56.23 26.88 58.71 30 58.71 35.88C 58.71 41.96 55.83 44.52 52.39 44.52C 50.59 44.52 48.87 43.88 47.11 42.12L 47.11 29.48ZM 46.67 25.32L 46.11 24.92L 40.31 27.04L 40.31 28.32L 43.91 28.6C 44.03 30.48 44.07 32.16 44.07 34.72L 44.07 47.36C 44.07 49.72 44.03 52.28 43.99 54.68L 40.35 55.2L 40.35 56.48L 51.19 56.48L 51.19 55.2L 47.07 54.68C 46.99 52.24 46.95 49.6 46.95 47.28L 46.95 43.56C 48.91 45.92 51.07 46.56 53.07 46.56C 58.19 46.56 61.91 42.32 61.91 35.56C 61.91 29 58.35 24.88 53.67 24.88C 51.31 24.88 48.99 25.88 46.91 28.2L 46.67 25.32ZM 84.4719 44.24L 84.4719 31.68L 84.6319 25.6L 84.1919 25.16L 78.2719 25.68L 78.2719 26.96L 81.5519 27.52L 81.4719 40.8C 79.4319 42.92 77.2319 44 74.9519 44C 72.3519 44 71.0719 42.56 71.0719 38.4L 71.0719 31.68L 71.2719 25.6L 70.8719 25.16L 64.8719 25.68L 64.8719 26.96L 68.1919 27.52L 68.0719 38.64C 68.0319 44.52 70.1519 46.56 73.7519 46.56C 76.5519 46.56 79.3119 45.12 81.5519 42.36L 81.8719 46.36L 87.5519 46L 87.5519 44.72L 84.4719 44.24ZM 102.259 43.56C 101.139 44.36 100.259 44.72 99.2188 44.72C 97.5788 44.72 96.6188 43.72 96.6188 41.36L 96.6188 27.28L 102.659 27.28L 102.659 25.44L 96.6588 25.44L 96.8988 19.4L 94.6987 19.4L 93.7387 25.32L 89.6587 25.8L 89.6587 27.28L 93.5787 27.28L 93.5787 38.04C 93.5787 39.6 93.5388 40.52 93.5388 41.52C 93.5388 44.92 95.2188 46.56 98.2587 46.56C 100.299 46.56 101.939 45.84 103.059 44.56L 102.259 43.56ZM 126.552 43.96C 126.512 41.56 126.472 39.2 126.472 36.84L 126.472 24.12L 126.632 17.92L 126.032 17.44L 117.392 19.68L 117.392 21.12L 123.392 20.44L 123.392 36.84C 123.392 39.2 123.352 41.56 123.312 43.96L 116.992 44.72L 116.992 46L 132.792 46L 132.792 44.72L 126.552 43.96Z"/>
<path id="path14_stroke" d="M 98.3536 0.353553C 98.5488 0.158291 98.5488 -0.158291 98.3536 -0.353553L 95.1716 -3.53553C 94.9763 -3.7308 94.6597 -3.7308 94.4645 -3.53553C 94.2692 -3.34027 94.2692 -3.02369 94.4645 -2.82843L 97.2929 0L 94.4645 2.82843C 94.2692 3.02369 94.2692 3.34027 94.4645 3.53553C 94.6597 3.7308 94.9763 3.7308 95.1716 3.53553L 98.3536 0.353553ZM 0 0.5L 98 0.5L 98 -0.5L 0 -0.5L 0 0.5Z"/>
<path id="path15_stroke" d="M 0 0L 24 0L 24 -1L 0 -1L 0 0Z"/>
<path id="path16_stroke" d="M 0 0L 43 0L 43 -1L 0 -1L 0 0Z"/>
</defs>
</svg>
