<svg width="1019" height="398" viewBox="0 0 1019 398" fill="none" xmlns="http://www.w3.org/2000/svg">
<line y1="-7.5" x2="108" y2="-7.5" transform="translate(49 134)" stroke="white" stroke-width="15"/>
<line y1="-7.5" x2="108" y2="-7.5" transform="translate(219 256)" stroke="white" stroke-width="15"/>
<line y1="-7.5" x2="150" y2="-7.5" transform="translate(144 126) rotate(60)" stroke="white" stroke-width="15"/>
<path d="M31.8834 95.3301L182 8.66025L332.117 95.3301V268.67L182 355.34L31.8834 268.67V95.3301Z" transform="translate(0 373) rotate(-90)" stroke="white" stroke-width="15"/>
<circle cx="25" cy="25" r="25" transform="translate(194 224)" fill="white"/>
<circle cx="25" cy="25" r="25" transform="translate(131 101)" fill="white"/>
<path d="M114.24 292.36C109.76 294.493 103.573 296.947 95.68 299.72C87.7867 302.28 79.36 303.56 70.4 303.56C64.8533 303.56 59.6267 302.813 54.72 301.32C49.8133 299.827 45.44 297.587 41.6 294.6C37.9733 291.613 35.0933 287.773 32.96 283.08C30.8267 278.173 29.76 272.307 29.76 265.48V160.84H7.68V133.64H29.76V78.6H64.96V133.64H101.44V160.84H64.96V254.28C65.3867 260.253 67.2 264.627 70.4 267.4C73.8133 269.96 77.9733 271.24 82.88 271.24C87.7867 271.24 92.48 270.387 96.96 268.68C101.44 266.973 104.747 265.587 106.88 264.52L114.24 292.36ZM121.02 362.12C113.34 362.12 106.087 360.947 99.26 358.6C92.4333 356.253 86.2467 352.627 80.7 347.72L96.38 324.04C99.1533 326.6 102.353 328.413 105.98 329.48C109.607 330.76 113.233 331.4 116.86 331.4C123.047 331.4 128.487 329.053 133.18 324.36C138.087 319.88 140.54 314.12 140.54 307.08V133.64H175.74V304.52C175.74 313.053 174.247 320.84 171.26 327.88C168.487 334.92 164.54 341 159.42 346.12C154.513 351.24 148.753 355.187 142.14 357.96C135.527 360.733 128.487 362.12 121.02 362.12ZM140.54 106.12V67.4H175.74V106.12H140.54ZM473.995 301H438.795V207.24C438.795 191.667 436.235 180.253 431.115 173C425.995 165.747 418.528 162.12 408.715 162.12C398.688 162.12 389.515 165.853 381.195 173.32C373.088 180.573 367.222 190.067 363.595 201.8V301H328.395V207.24C328.395 191.453 325.835 180.04 320.715 173C315.595 165.747 308.235 162.12 298.635 162.12C288.608 162.12 279.435 165.747 271.115 173C262.795 180.253 256.822 189.747 253.195 201.48V301H217.995V133.64H249.995V167.24C256.608 155.507 265.248 146.547 275.915 140.36C286.795 133.96 299.168 130.76 313.035 130.76C326.902 130.76 337.782 134.387 345.675 141.64C353.782 148.893 358.795 157.96 360.715 168.84C367.755 156.467 376.608 147.08 387.275 140.68C397.942 134.067 410.102 130.76 423.755 130.76C433.568 130.76 441.675 132.68 448.075 136.52C454.688 140.147 459.915 145.053 463.755 151.24C467.595 157.427 470.262 164.68 471.755 173C473.248 181.107 473.995 189.747 473.995 198.92V301ZM514.878 67.4H550.078V252.68C550.078 258.867 551.677 263.773 554.878 267.4C558.078 270.813 562.558 272.52 568.317 272.52C570.664 272.52 573.331 272.093 576.318 271.24C579.517 270.387 582.504 269.427 585.278 268.36L590.398 295.88C585.278 298.227 579.198 300.04 572.158 301.32C565.118 302.813 558.824 303.56 553.278 303.56C541.118 303.56 531.624 300.253 524.797 293.64C518.184 287.027 514.878 277.64 514.878 265.48V67.4Z" transform="translate(426 9)" fill="white"/>
</svg>
