<svg width="1019" height="398" viewBox="0 0 1019 398" version="1.1" xmlns="http://www.w3.org/2000/svg" xmlns:xlink="http://www.w3.org/1999/xlink">
<title>small_logo</title>
<desc>Created using Figma</desc>
<g id="Canvas" transform="translate(1692 -1079)">
<clipPath id="clip-0" clip-rule="evenodd">
<path d="M -1692 1079L -673 1079L -673 1477L -1692 1477L -1692 1079Z" fill="#FFFFFF"/>
</clipPath>
<g id="small_logo" clip-path="url(#clip-0)">
<path d="M -1692 1079L -673 1079L -673 1477L -1692 1477L -1692 1079Z" fill="#FFFFFF"/>
<g id="Line">
<use xlink:href="#path0_stroke" transform="translate(-1643 1213)" fill="#4285F4"/>
</g>
<g id="Line">
<use xlink:href="#path0_stroke" transform="translate(-1473 1335)" fill="#4285F4"/>
</g>
<g id="Line">
<use xlink:href="#path1_stroke" transform="matrix(0.5 0.866025 -0.866025 0.5 -1548 1205)" fill="#4285F4"/>
</g>
<g id="Polygon">
<mask id="mask0_outline_ins">
<use xlink:href="#path2_fill" fill="white" transform="matrix(6.12323e-17 -1 1 6.12323e-17 -1692 1452)"/>
</mask>
<g mask="url(#mask0_outline_ins)">
<use xlink:href="#path3_stroke_2x" transform="matrix(6.12323e-17 -1 1 6.12323e-17 -1692 1452)" fill="#4285F4"/>
</g>
</g>
<g id="Ellipse">
<use xlink:href="#path4_fill" transform="translate(-1498 1303)" fill="#4285F4"/>
</g>
<g id="Ellipse">
<use xlink:href="#path4_fill" transform="translate(-1561 1180)" fill="#4285F4"/>
</g>
<g id="tjml">
<use xlink:href="#path5_fill" transform="translate(-1266 1088)" fill="#4285F4"/>
</g>
</g>
</g>
<defs>
<path id="path0_stroke" d="M 0 0L 108 0L 108 -15L 0 -15L 0 0Z"/>
<path id="path1_stroke" d="M 0 0L 150 0L 150 -15L 0 -15L 0 0Z"/>
<path id="path2_fill" d="M 182 0L 339.617 91L 339.617 273L 182 364L 24.3834 273L 24.3834 91L 182 0Z"/>
<path id="path3_stroke_2x" d="M 182 0L 189.5 -12.9904L 182 -17.3205L 174.5 -12.9904L 182 0ZM 339.617 91L 354.617 91L 354.617 82.3397L 347.117 78.0096L 339.617 91ZM 339.617 273L 347.117 285.99L 354.617 281.66L 354.617 273L 339.617 273ZM 182 364L 174.5 376.99L 182 381.32L 189.5 376.99L 182 364ZM 24.3834 273L 9.38338 273L 9.38338 281.66L 16.8834 285.99L 24.3834 273ZM 24.3834 91L 16.8834 78.0096L 9.38338 82.3397L 9.38338 91L 24.3834 91ZM 174.5 12.9904L 332.117 103.99L 347.117 78.0096L 189.5 -12.9904L 174.5 12.9904ZM 324.617 91L 324.617 273L 354.617 273L 354.617 91L 324.617 91ZM 332.117 260.01L 174.5 351.01L 189.5 376.99L 347.117 285.99L 332.117 260.01ZM 189.5 351.01L 31.8834 260.01L 16.8834 285.99L 174.5 376.99L 189.5 351.01ZM 39.3834 273L 39.3834 91L 9.38338 91L 9.38338 273L 39.3834 273ZM 31.8834 103.99L 189.5 12.9904L 174.5 -12.9904L 16.8834 78.0096L 31.8834 103.99Z"/>
<path id="path4_fill" d="M 50 25C 50 38.8071 38.8071 50 25 50C 11.1929 50 0 38.8071 0 25C 0 11.1929 11.1929 0 25 0C 38.8071 0 50 11.1929 50 25Z"/>
<path id="path5_fill" d="M 114.24 292.36C 109.76 294.493 103.573 296.947 95.68 299.72C 87.7867 302.28 79.36 303.56 70.4 303.56C 64.8533 303.56 59.6267 302.813 54.72 301.32C 49.8133 299.827 45.44 297.587 41.6 294.6C 37.9733 291.613 35.0933 287.773 32.96 283.08C 30.8267 278.173 29.76 272.307 29.76 265.48L 29.76 160.84L 7.68 160.84L 7.68 133.64L 29.76 133.64L 29.76 78.6L 64.96 78.6L 64.96 133.64L 101.44 133.64L 101.44 160.84L 64.96 160.84L 64.96 254.28C 65.3867 260.253 67.2 264.627 70.4 267.4C 73.8133 269.96 77.9733 271.24 82.88 271.24C 87.7867 271.24 92.48 270.387 96.96 268.68C 101.44 266.973 104.747 265.587 106.88 264.52L 114.24 292.36ZM 121.02 362.12C 113.34 362.12 106.087 360.947 99.26 358.6C 92.4333 356.253 86.2467 352.627 80.7 347.72L 96.38 324.04C 99.1533 326.6 102.353 328.413 105.98 329.48C 109.607 330.76 113.233 331.4 116.86 331.4C 123.047 331.4 128.487 329.053 133.18 324.36C 138.087 319.88 140.54 314.12 140.54 307.08L 140.54 133.64L 175.74 133.64L 175.74 304.52C 175.74 313.053 174.247 320.84 171.26 327.88C 168.487 334.92 164.54 341 159.42 346.12C 154.513 351.24 148.753 355.187 142.14 357.96C 135.527 360.733 128.487 362.12 121.02 362.12ZM 140.54 106.12L 140.54 67.4L 175.74 67.4L 175.74 106.12L 140.54 106.12ZM 473.995 301L 438.795 301L 438.795 207.24C 438.795 191.667 436.235 180.253 431.115 173C 425.995 165.747 418.528 162.12 408.715 162.12C 398.688 162.12 389.515 165.853 381.195 173.32C 373.088 180.573 367.222 190.067 363.595 201.8L 363.595 301L 328.395 301L 328.395 207.24C 328.395 191.453 325.835 180.04 320.715 173C 315.595 165.747 308.235 162.12 298.635 162.12C 288.608 162.12 279.435 165.747 271.115 173C 262.795 180.253 256.822 189.747 253.195 201.48L 253.195 301L 217.995 301L 217.995 133.64L 249.995 133.64L 249.995 167.24C 256.608 155.507 265.248 146.547 275.915 140.36C 286.795 133.96 299.168 130.76 313.035 130.76C 326.902 130.76 337.782 134.387 345.675 141.64C 353.782 148.893 358.795 157.96 360.715 168.84C 367.755 156.467 376.608 147.08 387.275 140.68C 397.942 134.067 410.102 130.76 423.755 130.76C 433.568 130.76 441.675 132.68 448.075 136.52C 454.688 140.147 459.915 145.053 463.755 151.24C 467.595 157.427 470.262 164.68 471.755 173C 473.248 181.107 473.995 189.747 473.995 198.92L 473.995 301ZM 514.878 67.4L 550.078 67.4L 550.078 252.68C 550.078 258.867 551.677 263.773 554.878 267.4C 558.078 270.813 562.558 272.52 568.317 272.52C 570.664 272.52 573.331 272.093 576.318 271.24C 579.517 270.387 582.504 269.427 585.278 268.36L 590.398 295.88C 585.278 298.227 579.198 300.04 572.158 301.32C 565.118 302.813 558.824 303.56 553.278 303.56C 541.118 303.56 531.624 300.253 524.797 293.64C 518.184 287.027 514.878 277.64 514.878 265.48L 514.878 67.4Z"/>
</defs>
</svg>
