<?xml version="1.0" encoding="utf-8"?>
<!-- Generator: Adobe Illustrator 21.0.0, SVG Export Plug-In . SVG Version: 6.00 Build 0)  -->
<svg version="1.1" id="Layer_1" xmlns="http://www.w3.org/2000/svg" xmlns:xlink="http://www.w3.org/1999/xlink" x="0px" y="0px"
	 viewBox="0 0 432 192" style="enable-background:new 0 0 432 192;" xml:space="preserve">
<style type="text/css">
	.st0{fill:#4D6272;}
</style>
<g>
	<g>
		<path class="st0" d="M76.2,158c-9.6,24.8-20.4,34-40,34c-11.7,0-20.2-2.8-28.7-7.4L17,164c5,2.8,10.5,4.6,16.3,4.6
			c7.8,0,12.6-3.4,17.2-14L0,33.3h29.6l34.5,90l31.4-90h29L76.2,158z"/>
		<path class="st0" d="M186,134.6c13.5,0,23.2-5.1,32.9-14.5l16.3,14.5c-11.5,13.8-27.3,22.7-49.6,22.7c-35.1,0-62.2-25.5-62.2-63.2
			c0-34.9,24.6-63.4,59.2-63.4c38.6,0,58.1,30.3,58.1,65.5c0,2.5-0.2,4.8-0.5,7.6h-89.1C154.3,123.5,168.1,134.6,186,134.6z
			 M213.1,85.4c-1.8-17.9-12.4-31.9-30.8-31.9c-17,0-28.9,13.1-31.4,31.9H213.1z"/>
		<path class="st0" d="M399.4,116.7c0,10.8,5.5,15.1,14.9,15.1c6.2,0,11.7-1.4,17.2-4.1v22.7c-6.9,3.9-14.7,6.2-25,6.2
			c-20.4,0-34.9-9-34.9-35.6V0h27.8v33.3H432v23.9h-32.6V116.7z"/>
		<polygon class="st0" points="314.2,93.9 270,33.3 239.7,33.3 283.9,93.9 239.7,154.6 270,154.6 		"/>
		<polygon class="st0" points="312.9,73.1 321.1,84.5 358.5,33.3 328.1,33.3 306,63.7 		"/>
		<polygon class="st0" points="321.1,103.4 312.9,114.7 306,124.1 328.1,154.6 358.5,154.6 		"/>
	</g>
</g>
</svg>
