<?xml version="1.0" encoding="utf-8"?>
<!-- Generator: Adobe Illustrator 23.0.3, SVG Export Plug-In . SVG Version: 6.00 Build 0)  -->
<svg version="1.1" id="Yext_Seal" xmlns="http://www.w3.org/2000/svg" xmlns:xlink="http://www.w3.org/1999/xlink" x="0px" y="0px"
	 viewBox="0 0 720 720" style="enable-background:new 0 0 720 720;" xml:space="preserve">
<path id="Circle" d="M360,0C161.18,0,0,161.18,0,360s161.18,360,360,360s360-161.18,360-360S558.82,0,360,0z M360,691.2
	C177.08,691.2,28.8,542.92,28.8,360S177.08,28.8,360,28.8S691.2,177.08,691.2,360S542.92,691.2,360,691.2z"/>
<polygon id="T" points="370.8,399.6 435.6,399.6 435.6,529.2 464.4,529.2 464.4,399.6 529.2,399.6 529.2,370.8 370.8,370.8 "/>
<polygon id="X" points="332.43,367.2 270,429.64 207.57,367.2 187.2,387.57 249.64,450 187.2,512.43 207.57,532.8 270,470.36 
	332.43,532.8 352.8,512.43 290.36,450 352.8,387.57 "/>
<path id="E" d="M448.2,349.2c44.73,0,81-36.27,81-81h-28.8c0,28.83-23.37,52.2-52.2,52.2c-8.23,0-16.01-1.91-22.93-5.3l69.83-69.83
	l21.08-21.08c-14.44-22.25-39.48-36.98-67.98-36.98c-44.74,0-81,36.27-81,81S403.46,349.2,448.2,349.2z M448.2,216
	c10.12,0,19.56,2.89,27.56,7.88l-71.88,71.88c-4.99-8-7.87-17.44-7.87-27.56C396,239.37,419.37,216,448.2,216z"/>
<polygon id="Y" points="270,259.58 209.26,187.2 187.2,205.71 255.6,287.23 255.6,349.2 284.4,349.2 284.4,287.23 352.8,205.71 
	330.74,187.2 "/>
</svg>
